<?xml version="1.0" standalone="no"?>
<!DOCTYPE svg PUBLIC "-//W3C//DTD SVG 20010904//EN"
 "http://www.w3.org/TR/2001/REC-SVG-20010904/DTD/svg10.dtd">
<svg version="1.0" xmlns="http://www.w3.org/2000/svg"
 width="421.000000pt" height="421.000000pt" viewBox="0 0 421.000000 421.000000"
 preserveAspectRatio="xMidYMid meet">
<metadata>
Created by potrace 1.14, written by Peter Selinger 2001-2017
</metadata>
<g transform="translate(0.000000,421.000000) scale(0.100000,-0.100000)"
fill="#000000" stroke="none">
<path d="M1345 3212 c-28 -11 -61 -24 -73 -31 -12 -6 -22 -10 -22 -7 0 11
-150 -38 -205 -67 -33 -18 -85 -57 -115 -88 -69 -71 -73 -76 -96 -125 -10 -21
-21 -41 -25 -44 -8 -6 -66 -131 -74 -162 -2 -5 -4 -10 -5 -13 -1 -3 -3 -8 -4
-12 -1 -5 -4 -13 -8 -18 -10 -16 -20 -92 -23 -166 -3 -88 18 -202 59 -328 30
-92 32 -107 19 -119 -37 -38 -34 -112 10 -222 45 -110 89 -156 132 -139 34 13
40 10 105 -48 34 -32 71 -65 82 -73 10 -8 31 -25 46 -38 15 -12 55 -37 89 -54
l63 -31 -4 -56 c-5 -61 -23 -111 -39 -111 -14 0 -117 -70 -142 -96 -11 -12
-70 -58 -132 -103 -61 -45 -128 -102 -149 -127 -38 -45 -84 -132 -99 -189 -4
-16 -9 -34 -11 -40 -7 -26 -16 -62 -19 -80 -2 -11 -6 -33 -9 -50 -6 -38 -14
-111 -21 -195 -3 -36 -7 -83 -10 -105 -2 -22 -7 -82 -11 -132 l-6 -93 884 0
885 0 -3 88 c-4 126 -13 284 -18 309 -3 12 -7 48 -11 79 -3 32 -8 61 -11 65
-2 4 -6 27 -9 51 -2 23 -7 58 -9 76 -5 36 -5 36 49 20 22 -6 43 -11 48 -10 4
1 7 -3 7 -9 0 -5 4 -7 10 -4 5 3 10 1 10 -6 0 -7 3 -10 6 -6 3 3 11 1 18 -4
19 -16 128 -79 137 -79 5 0 9 -4 9 -10 0 -5 7 -10 15 -10 8 0 15 -4 15 -10 0
-5 7 -10 15 -10 8 0 15 -4 15 -10 0 -5 5 -10 10 -10 6 0 20 -9 32 -20 12 -11
28 -20 35 -20 7 0 13 -4 13 -10 0 -5 5 -10 11 -10 6 0 30 -14 55 -30 24 -17
44 -27 44 -23 0 4 4 3 8 -3 6 -8 74 -45 92 -49 3 -1 19 -7 35 -14 145 -61 276
-16 331 114 8 19 14 36 13 37 0 2 5 16 11 32 17 46 13 173 -10 291 -12 61 -23
121 -25 135 -14 105 -23 120 -69 120 -10 0 -16 17 -21 52 -6 49 -36 228 -71
428 -9 47 -17 99 -19 115 -3 17 -11 54 -18 83 -16 59 -13 63 50 76 38 9 113
73 144 124 55 91 116 179 141 207 15 17 28 33 28 36 0 3 11 19 25 35 14 16 25
33 25 37 0 5 7 15 15 24 17 16 12 48 -10 72 -21 21 -63 16 -86 -10 -11 -13
-29 -34 -40 -47 -10 -12 -19 -27 -19 -32 0 -6 -5 -10 -10 -10 -6 0 -14 -8 -17
-17 -4 -10 -20 -31 -36 -48 -27 -28 -28 -28 -17 -5 7 14 25 41 39 60 36 48 51
72 57 93 4 9 10 17 14 17 4 0 13 14 20 30 7 17 16 30 21 30 4 0 11 10 15 23 4
12 10 24 14 27 18 14 36 67 28 86 -17 36 -44 46 -83 30 -19 -8 -35 -20 -35
-25 0 -6 -22 -42 -50 -81 -27 -39 -50 -75 -50 -80 0 -6 -4 -10 -10 -10 -5 0
-10 -5 -10 -10 0 -6 -5 -16 -10 -23 -6 -7 -22 -27 -35 -46 -14 -19 -25 -30
-25 -24 0 14 81 157 92 161 4 2 8 10 8 18 0 8 4 14 9 14 5 0 14 12 20 28 6 15
26 55 46 90 19 34 35 70 35 80 -1 28 -26 53 -59 58 -26 4 -34 0 -62 -38 -17
-24 -36 -54 -42 -68 -7 -14 -14 -27 -17 -30 -10 -9 -100 -172 -100 -181 0 -5
-4 -9 -10 -9 -5 0 -10 -6 -10 -14 0 -8 -7 -16 -15 -20 -8 -3 -15 -4 -15 -2 0
2 32 67 71 145 39 78 72 151 74 161 5 24 -24 60 -50 64 -39 6 -64 -27 -146
-192 -46 -92 -86 -169 -90 -172 -3 -3 -11 -15 -18 -27 -6 -13 -17 -23 -24 -23
-16 0 -43 45 -51 86 -10 46 -83 105 -119 96 -4 -1 -17 -4 -29 -5 -23 -4 -48
-33 -48 -55 0 -8 13 -31 29 -51 56 -71 62 -96 61 -229 -1 -103 14 -188 47
-261 31 -70 31 -64 37 -316 7 -263 15 -437 22 -492 5 -40 4 -43 -18 -43 -14 0
-44 20 -78 51 -30 28 -98 91 -150 140 -131 122 -144 132 -216 169 -98 49 -171
68 -255 65 -82 -3 -105 -7 -199 -36 -80 -25 -130 -32 -130 -19 0 6 5 10 12 10
11 0 126 114 161 161 25 33 87 166 87 187 0 31 25 65 50 69 47 7 53 23 54 145
0 130 -16 205 -48 219 -20 10 -21 17 -20 192 0 147 -3 195 -18 250 -22 82
-118 242 -173 289 -50 43 -77 55 -139 62 -47 5 -66 17 -66 43 0 7 -10 18 -22
24 -13 7 -35 25 -51 40 -20 21 -37 29 -62 29 -20 0 -52 7 -73 16 -59 25 -149
27 -207 6z"/>
</g>
</svg>
